HIERARCHY
ROOT Hips
{
	OFFSET -14.64140 90.27770 -84.91600
	CHANNELS 6 Xposition Yposition Zposition Zrotation Xrotation Yrotation
	JOINT Spine
	{
		OFFSET 0.00000 13.20850 -1.60436
		CHANNELS 3 Zrotation Xrotation Yrotation
		JOINT Spine1
		{
			OFFSET 0.00000 8.61716 0.00000
			CHANNELS 3 Zrotation Xrotation Yrotation
			JOINT Spine2
			{
				OFFSET 0.00000 8.61717 0.00000
				CHANNELS 3 Zrotation Xrotation Yrotation
				JOINT Spine3
				{
					OFFSET 0.00000 8.61717 0.00000
					CHANNELS 3 Zrotation Xrotation Yrotation
					JOINT Neck
					{
						OFFSET 0.00000 11.07920 1.10792
						CHANNELS 3 Zrotation Xrotation Yrotation
						JOINT Neck1
						{
							OFFSET 0.00000 7.08032 0.00000
							CHANNELS 3 Zrotation Xrotation Yrotation
							JOINT Head
							{
								OFFSET 0.00000 7.08031 0.00000
								CHANNELS 3 Zrotation Xrotation Yrotation
								End site
								{
									OFFSET 0.00000 0.00000 0.00000
								}
							}
						}
					}
					JOINT RightShoulder
					{
						OFFSET -0.01000 7.91373 5.19711
						CHANNELS 3 Zrotation Xrotation Yrotation
						JOINT RightArm
						{
							OFFSET -18.41580 0.00000 0.00000
							CHANNELS 3 Zrotation Xrotation Yrotation
							JOINT RightForeArm
							{
								OFFSET -29.11090 0.00000 0.00000
								CHANNELS 3 Zrotation Xrotation Yrotation
								JOINT RightHand
								{
									OFFSET -24.65040 0.00000 0.00000
									CHANNELS 3 Zrotation Xrotation Yrotation
									JOINT RightHandThumb1
									{
										OFFSET -5.35114 -0.85590 3.97906
										CHANNELS 3 Zrotation Xrotation Yrotation
										JOINT RightHandThumb2
										{
											OFFSET -4.52789 0.00000 0.00000
											CHANNELS 3 Zrotation Xrotation Yrotation
											JOINT RightHandThumb3
											{
												OFFSET -2.46976 0.00000 0.00000
												CHANNELS 3 Zrotation Xrotation Yrotation
												End site
												{
													OFFSET 0.00000 0.00000 0.00000
												}
											}
										}
									}
									JOINT RightHandIndex1
									{
										OFFSET -14.26970 0.00000 2.88139
										CHANNELS 3 Zrotation Xrotation Yrotation
										JOINT RightHandIndex2
										{
											OFFSET -5.48836 0.00000 0.00000
											CHANNELS 3 Zrotation Xrotation Yrotation
											JOINT RightHandIndex3
											{
												OFFSET -3.01859 0.00000 0.00000
												CHANNELS 3 Zrotation Xrotation Yrotation
												End site
												{
													OFFSET 0.00000 0.00000 0.00000
												}
											}
										}
									}
									JOINT RightHandMiddle1
									{
										OFFSET -14.26970 0.00000 -0.09147
										CHANNELS 3 Zrotation Xrotation Yrotation
										JOINT RightHandMiddle2
										{
											OFFSET -6.17441 0.00000 0.00000
											CHANNELS 3 Zrotation Xrotation Yrotation
											JOINT RightHandMiddle3
											{
												OFFSET -3.56743 0.00000 0.00000
												CHANNELS 3 Zrotation Xrotation Yrotation
												End site
												{
													OFFSET 0.00000 0.00000 0.00000
												}
											}
										}
									}
									JOINT RightHandRing1
									{
										OFFSET -12.69180 0.00000 -3.06433
										CHANNELS 3 Zrotation Xrotation Yrotation
										JOINT RightHandRing2
										{
											OFFSET -5.62556 0.00000 0.00000
											CHANNELS 3 Zrotation Xrotation Yrotation
											JOINT RightHandRing3
											{
												OFFSET -3.56744 0.00000 0.00000
												CHANNELS 3 Zrotation Xrotation Yrotation
												End site
												{
													OFFSET 0.00000 0.00000 0.00000
												}
											}
										}
									}
									JOINT RightHandPinky1
									{
										OFFSET -11.11390 0.00000 -6.03719
										CHANNELS 3 Zrotation Xrotation Yrotation
										JOINT RightHandPinky2
										{
											OFFSET -4.52789 0.00000 0.00000
											CHANNELS 3 Zrotation Xrotation Yrotation
											JOINT RightHandPinky3
											{
												OFFSET -2.46976 0.00000 0.00000
												CHANNELS 3 Zrotation Xrotation Yrotation
												End site
												{
													OFFSET 0.00000 0.00000 0.00000
												}
											}
										}
									}
								}
							}
						}
					}
					JOINT LeftShoulder
					{
						OFFSET 0.01000 7.91373 5.19711
						CHANNELS 3 Zrotation Xrotation Yrotation
						JOINT LeftArm
						{
							OFFSET 18.41580 0.00000 0.00000
							CHANNELS 3 Zrotation Xrotation Yrotation
							JOINT LeftForeArm
							{
								OFFSET 29.11090 0.00000 0.00000
								CHANNELS 3 Zrotation Xrotation Yrotation
								JOINT LeftHand
								{
									OFFSET 24.65040 0.00000 0.00000
									CHANNELS 3 Zrotation Xrotation Yrotation
									JOINT LeftHandThumb1
									{
										OFFSET 5.35114 -0.85590 3.97906
										CHANNELS 3 Zrotation Xrotation Yrotation
										JOINT LeftHandThumb2
										{
											OFFSET 4.52789 0.00000 0.00000
											CHANNELS 3 Zrotation Xrotation Yrotation
											JOINT LeftHandThumb3
											{
												OFFSET 2.46977 0.00000 0.00000
												CHANNELS 3 Zrotation Xrotation Yrotation
												End site
												{
													OFFSET 0.00000 0.00000 0.00000
												}
											}
										}
									}
									JOINT LeftHandIndex1
									{
										OFFSET 14.26970 0.00000 2.88139
										CHANNELS 3 Zrotation Xrotation Yrotation
										JOINT LeftHandIndex2
										{
											OFFSET 5.48836 0.00000 0.00000
											CHANNELS 3 Zrotation Xrotation Yrotation
											JOINT LeftHandIndex3
											{
												OFFSET 3.01859 0.00000 0.00000
												CHANNELS 3 Zrotation Xrotation Yrotation
												End site
												{
													OFFSET 0.00000 0.00000 0.00000
												}
											}
										}
									}
									JOINT LeftHandMiddle1
									{
										OFFSET 14.26970 0.00000 -0.09147
										CHANNELS 3 Zrotation Xrotation Yrotation
										JOINT LeftHandMiddle2
										{
											OFFSET 6.17440 0.00000 0.00000
											CHANNELS 3 Zrotation Xrotation Yrotation
											JOINT LeftHandMiddle3
											{
												OFFSET 3.56744 0.00000 0.00000
												CHANNELS 3 Zrotation Xrotation Yrotation
												End site
												{
													OFFSET 0.00000 0.00000 0.00000
												}
											}
										}
									}
									JOINT LeftHandRing1
									{
										OFFSET 12.69180 0.00000 -3.06433
										CHANNELS 3 Zrotation Xrotation Yrotation
										JOINT LeftHandRing2
										{
											OFFSET 5.62556 0.00000 0.00000
											CHANNELS 3 Zrotation Xrotation Yrotation
											JOINT LeftHandRing3
											{
												OFFSET 3.56744 0.00000 0.00000
												CHANNELS 3 Zrotation Xrotation Yrotation
												End site
												{
													OFFSET 0.00000 0.00000 0.00000
												}
											}
										}
									}
									JOINT LeftHandPinky1
									{
										OFFSET 11.11390 0.00000 -6.03719
										CHANNELS 3 Zrotation Xrotation Yrotation
										JOINT LeftHandPinky2
										{
											OFFSET 4.52789 0.00000 0.00000
											CHANNELS 3 Zrotation Xrotation Yrotation
											JOINT LeftHandPinky3
											{
												OFFSET 2.46976 0.00000 0.00000
												CHANNELS 3 Zrotation Xrotation Yrotation
												End site
												{
													OFFSET 0.00000 0.00000 0.00000
												}
											}
										}
									}
								}
							}
						}
					}
					JOINT pCube4
					{
						OFFSET 0.00000 10.91090 1.10792
						CHANNELS 3 Zrotation Xrotation Yrotation
						End site
						{
							OFFSET 0.00000 0.00000 0.00000
						}
					}
				}
			}
		}
	}
	JOINT RightUpLeg
	{
		OFFSET -9.98441 0.00000 0.00000
		CHANNELS 3 Zrotation Xrotation Yrotation
		JOINT RightLeg
		{
			OFFSET 0.00000 -42.11790 0.00000
			CHANNELS 3 Zrotation Xrotation Yrotation
			JOINT RightFoot
			{
				OFFSET 0.00000 -45.00020 -0.00001
				CHANNELS 3 Zrotation Xrotation Yrotation
				JOINT RightForeFoot
				{
					OFFSET 0.00000 -3.74820 0.00000
					CHANNELS 3 Zrotation Xrotation Yrotation
					JOINT RightToeBase
					{
						OFFSET 0.00000 0.06325 14.43120
						CHANNELS 3 Zrotation Xrotation Yrotation
						End site
						{
							OFFSET 0.00000 0.00000 0.00000
						}
					}
				}
			}
		}
	}
	JOINT LeftUpLeg
	{
		OFFSET 9.98441 0.00000 0.00000
		CHANNELS 3 Zrotation Xrotation Yrotation
		JOINT LeftLeg
		{
			OFFSET 0.00000 -42.11800 0.00000
			CHANNELS 3 Zrotation Xrotation Yrotation
			JOINT LeftFoot
			{
				OFFSET 0.00000 -45.00070 0.00000
				CHANNELS 3 Zrotation Xrotation Yrotation
				JOINT LeftForeFoot
				{
					OFFSET 0.00000 -3.74824 0.00000
					CHANNELS 3 Zrotation Xrotation Yrotation
					JOINT LeftToeBase
					{
						OFFSET 0.00000 0.06325 14.43110
						CHANNELS 3 Zrotation Xrotation Yrotation
						End site
						{
							OFFSET 0.00000 0.00000 0.00000
						}
					}
				}
			}
		}
	}
}
MOTION
Frames: 4
Frame Time: 0.050000
-0.03551233485558963 0.00148406890157678 0.007087560573311268 -0.015657424791222015 -0.006363197505836285 0.03565058421551592 -3.0513389084546625 6.543918632114317 -0.7562041165116801 -0.617303894421564 3.191438264827411 0.35011122799009425 -0.839859681559886 -0.11126842011170858 -0.577675016233172 -0.344177506081477 0.20407036488955146 -0.8493862567386471 -0.029498078553368494 7.382550433599008 -0.5776962855443182 -0.06851773459602492 -1.9968796071240087 -4.60186799302031 0.3262854257828116 -16.945756892907255 -0.3153877284287109 4.226435187646567 -0.19472713026256766 -11.25453280173034 70.97787495209546 9.070835242167421 5.749468735009352 18.91025741972196 13.868682731272687 67.15715366023814 26.006998945702954 0.16550219724143744 -8.73489863093525 4.5443404148058075 -0.09720140673771156 -1.5680106614586768 -0.024912132858876043 -0.04964371971452343 -56.24796053665349 -0.047172562499989565 -0.027670803584362604 -56.190773980999 -38.72859944505686 0.049490520149300506 -0.0030752250681745585 -0.011343906074730112 -0.019826463752311053 -0.03594714549494284 -0.001091117478284883 -0.04696858239707865 0.012879094349408676 -36.6616631236657 -0.010795780879068483 0.005079946507037733 -0.015350361030725323 -0.024194450381733946 -0.0038809251436137666 -0.027094366686744278 0.008684646456410391 -0.014972073601954532 -19.748326284460656 -0.03086058270417591 -0.02229937915168161 -0.004154093373931887 -0.041751506439108445 0.020978272286370257 -0.023648184660536087 -0.027161280402022623 -0.010111554404242266 24.065103253470998 -0.019761413379996363 0.04172892840858362 28.837421633359828 0.007089441624485349 0.00464937629699223 28.81666557153947 0.0129627960740741 -0.016571357277295706 -3.2317994886927193 -0.016848373177229783 10.032221117637077 -68.85307409993017 18.669924043152385 -7.764824414500795 -9.479342849790967 9.680152261240718 -49.0836305247135 -17.80478273532958 5.667806155882988 -1.5586600593450917 -0.4743220666374365 0.04525478883708914 -8.123300206174648 0.0213279181972772 0.04139652387983651 44.559567571557686 0.013462770837646593 0.030363549572318838 44.56834071146218 12.456062539707947 -0.027939607972322648 -0.027168217314454225 0.014976014365994038 -0.03682997611123491 0.04697573314783874 0.004375320022924518 0.018502289784431445 0.03350827589632635 11.116477802050486 -0.018756344453740283 -0.047265794162064785 0.049892266568826185 0.005275674798446964 0.018926131124509277 0.04889163856648985 -0.0003359986427687481 0.005858313803969131 4.81485939732622 -0.008967477690879138 -0.03525261550472931 -0.03469987221124994 0.026640329212683608 0.007028465211084659 -0.04020977746190216 0.015203817476415101 0.01958042087414512 -5.560972530777251 0.007693056788981106 -0.030681395077334916 -6.674180079466993 -0.01239807436441799 -0.030118953144972132 -6.683620516076432 0.04279420473127855 -0.03906985682230964 0.03762347010125727 -0.014415707981665707 -0.04727695044338325 7.996769576844772 3.484992186750722 -19.206482140878986 0.014861259639055078 10.39926766606114 0.0044927808543736 -5.668961896613076 -15.641022491824424 3.2213745711166175 0.01811393413385435 0.03393811057503601 0.023721214679757165 -0.030586342743451022 4.683690688199258 -0.04819075699526847 12.445944615061942 -8.231981810309849 6.889686580838307 -0.01478351750737192 46.34133148296475 0.007525071647519288 -4.294705925135327 -14.751192152109624 -3.8153571312483745 0.029084787208157555 -0.0059185836912823446 -0.03395308711757942 0.025029558151633966 -10.743709138392957 -0.020483272952788897 
-0.0006574504509002625 0.0055542120376023815 0.018116808305556415 0.015759100155150807 0.030273924768046575 0.02738730961908479 -2.199053481018204 5.6905000035046225 -0.9105282219908827 -0.6280905192882562 3.285615460273639 0.34029392866438024 -0.8520676368976215 -0.3970770170559264 -0.392870751364203 -0.3028511264846602 0.16931846825340746 -0.8076493614014121 -0.039479103638190266 8.320667264307211 -0.713943962615365 0.05318963044225141 -1.9730032046589938 -4.532706233946351 0.4310060480268543 -17.264378208747246 -0.3758225108302472 2.151577889325731 0.42078959659397963 -11.781814174088089 72.67266955978229 10.238854669248557 8.373365729282103 29.82180764212947 11.424986855412653 75.9861901240304 23.41672501832846 0.07996607499984915 -9.176436435843344 4.484346193730973 -0.1491887263490636 -1.6089888143549285 0.02151399957422935 0.018620954279911762 -56.271401825041245 0.03570233358572187 0.009274025092393508 -56.239513935985165 -38.78949988483401 0.04363114490114699 0.0204952280780148 -0.0004154532660175213 0.004665947127893617 -0.005734357752967994 0.01665727677652257 0.03328016091889903 -0.029511296825419878 -36.68379085553531 0.014911316413716322 -0.021415719898287097 -0.02468311872042385 0.008518414172551624 -0.0022034128073591505 -0.014565851454337076 -0.03983433437234838 0.0330081534399851 -19.751294242056407 0.004927095257068776 0.04747833417608214 -0.028127725412535998 -0.005933086366389641 0.0025128697135995107 0.009731893366235877 -0.030698189590485814 -0.031998808386669325 24.010912330121155 0.03598499649880276 -0.047323610617533374 28.82737130238352 0.0020163116368681405 0.01461935977834754 28.883540670467173 0.03586652779211291 -0.02203537147936996 -1.1131161843064885 0.4181231585709222 10.503605352545746 -70.17567670817189 19.797144101254606 -9.001882595222243 -15.081068784461316 9.39811892675082 -52.900559210661974 -16.366072505718797 4.5012961732027446 -0.6396688533732507 -0.44975394269125585 0.05057704375862993 -8.122979258520884 -0.0019869310417783455 0.028132819175730548 44.54952225410517 -0.018105678236494956 0.03631520515338243 44.544791950630554 12.43465242329389 -0.03473052386639066 -0.017913570643387926 -0.020703373373134208 0.0023175170625727246 0.030085994589549404 -0.04002936265141646 0.04538948244460619 -0.04993078353865623 11.140952133651385 -0.04087328219785434 0.004104372865061948 -0.012995042803719449 0.003081501400411788 -0.0050301642225367895 0.03378578023918458 0.021505633883282787 0.02742148660179269 4.787840167595127 -0.04540755060617343 -0.028387021074329867 -0.0020927368612588797 -0.037774976805851734 -0.04768199487185763 0.008351244373874002 -0.004463542392441302 0.0160815230459928 -5.626077704983913 0.006123012120126438 0.012013469224366564 -6.768948500497586 -0.031502156273103155 0.019071050631513337 -6.719737634592551 -0.04317794403176354 0.006116858061438776 0.027851180848015862 -0.022823725506653344 0.02318334544031457 8.060740384049815 3.502642913384061 -19.231162280138996 0.020484961773502484 10.386249645893342 0.012782325254499204 -5.608889563702888 -15.652055135344092 3.153983608204571 0.02266868874578468 0.03331305541876005 0.04945508895308578 -0.04504189328920818 4.6634058678059995 0.02641266949759048 12.426539164701907 -8.203474578295875 6.921478201289517 -0.0141407440596298 46.39191742170115 -0.011770437113055058 -4.323622234370793 -14.72318020095295 -3.8447388216468603 -0.018471959020461556 -0.002717543918321772 0.03280561695442073 0.043059699091795654 -10.712605651818313 -0.0012029912058435577 
-0.015072595547071993 0.032962314044294734 -0.017759815242400893 0.01477108901046105 -0.005683811004672197 -0.03234436389689112 -1.337531227056474 4.895878784782587 -0.9837232725181482 -0.6710061707639343 3.3322843977668843 0.37619176149354694 -0.8548287125134797 -0.5965316317950279 -0.20315082262480721 -0.23759326404524284 0.1789270934193537 -0.6951144705329452 -0.056682507507658846 9.145844610155487 -0.8420314912811049 0.034961580937948836 -1.7917489970436926 -4.391642499777087 0.5102601340237791 -17.368638422923404 -0.35443438842962666 0.08488297867563166 0.9150397330728723 -12.209933153506508 74.3818866579328 11.032507355839272 10.649819545550072 38.15812320338179 8.210764967674264 82.62738489990815 21.06940758754501 -0.0801462682327135 -9.123726723109227 4.532067191413087 -0.09084660927892713 -1.6242612280645008 0.04897633779009778 -0.008351376415064124 -56.23312450396067 0.03635950320955169 -0.027004747519996708 -56.23829095602924 -38.74982479384056 -0.007758844124377395 -0.0066114217559125645 0.0064729076798631996 0.030691963746996096 -0.024501180820068504 0.02456935281669069 -0.03972934170492332 0.04063726598764538 -36.69347507146216 -0.019957846342852064 -0.005476967130685965 -0.02928043390904707 0.008648612872989948 0.00713856836649871 0.03161899277933384 0.049851565157376855 -0.007540752093012406 -19.708926209228874 -0.03526674070424229 0.032218515226318856 0.002094921047271894 0.01759063912411615 -0.01924612983861571 0.027486739627268063 -0.0022155251124548105 0.00479994781201852 24.046482700066992 -0.013283553630810171 -0.016595052511076763 28.83874310053057 -0.04061337942327022 -0.013544438891724603 28.87103584407652 -0.002897887445231487 0.002818414835974843 0.8906533360200956 0.7386359697289049 10.838781794056795 -71.43791944513319 20.775924335848106 -10.098493274688801 -19.653595539597998 8.30025377821599 -56.15655070196319 -15.144299943413046 3.003515133939753 0.2903762453610967 -0.4938162410288706 0.08962566863599533 -8.157749022548527 -0.02139553177685633 0.008675447562834507 44.551386194925065 0.018656428476830154 -0.016257046679550996 44.571946205766125 12.481487361064632 0.03780584616713577 0.008402710798716987 -0.014162155640491371 0.012022636885066952 0.02900392710926045 -0.022954467906888314 -0.031979289179001044 -0.04090405652760648 11.07718407945239 0.03006786608037528 -0.01642932956216593 -0.026342706853880002 0.03681823837770982 0.0391977966044817 0.03596296759660165 -0.03795044918443157 -0.03190638003990212 4.77735732378893 0.04393089229792446 -0.011946480844467379 -0.03915567077260861 0.034439615001355894 0.009982991914772397 0.027143354779282876 -0.03587893774393254 -0.032411881602060724 -5.645209985986846 0.0017745763424241966 -0.01851147791997059 -6.6808209310844475 0.02438837087831361 0.03393865642394866 -6.698237524088047 0.03390016990778707 -0.02633476160568201 0.01584379973559546 0.03047986841450295 -0.0006505465915487697 8.07953241381964 3.537509587627397 -19.249247930569105 -0.0223097747368864 10.432748641083181 0.00533145620671047 -5.612523553355921 -15.657646922177241 3.1957352604635907 -0.0007820587075641728 0.04455891161662783 0.014799604060474494 0.028992406853167375 4.699465333416186 0.017643619111088048 12.418763736493613 -8.217900510931358 6.91743858486247 0.038033446118280106 46.34034244076442 -0.011929132091568581 -4.28528933024312 -14.777909547301846 -3.8412967267396376 0.0343565975039785 -0.0014946258542025673 -0.019772483084468096 0.01250025779784389 -10.72590045382903 0.020331927562373397 
0.03860504517009652 0.04402960100806906 -0.041447931717786185 -0.04201520643460454 0.041996825356498645 -0.012901775724999268 -0.5214112536133193 4.274683290807685 -1.124157023588393 -0.7444661759531136 3.4463703958196485 0.36801547569343296 -0.8426139287221949 -0.7505200284560191 -0.12359905610605065 -0.2423517875500409 0.0773257431407328 -0.6630346485189461 0.0066468200087260515 9.715841693148118 -0.9085471845074462 0.1140814638446572 -1.5399408187589223 -4.389018706434355 0.5335999453881175 -17.35790057454466 -0.3704092946847694 -1.6934462635606733 1.4632642464843812 -12.733030583957957 76.01856535458197 10.988490049266243 12.159015995687842 42.886651309250716 5.662650893054852 85.96729789193162 19.28429528152 -0.11657488002632302 -8.722752543994973 4.527615908681506 -0.14730974447326045 -1.614364224610736 -0.0005055820271821907 0.03124342739671282 -56.22029151585978 -0.04569342892672065 0.047138182745873766 -56.210136549105016 -38.724709442635834 0.022770889496507594 -0.001005440025383658 -0.031545719903409104 -0.034087637779816965 0.028905598949134727 0.00793021931106702 -0.02893520891287989 -0.0016796474790742703 -36.717511904407594 0.026855737917293607 -0.0011992506867761169 -0.015975608224789797 0.03969906581646791 0.036563549517036005 0.038972058118224864 -0.0016025288366611568 -0.04763907000902306 -19.712489979817743 0.0444245745781442 0.014539710374029128 -0.028590141823714485 -0.01516202772764972 -0.0402077028955934 0.02033281374192267 0.0032061369657605935 0.012292946187032807 24.04041469081002 0.0035723505618200898 0.00997778970648164 28.861394253850907 -0.04366692421638354 0.03970994086405191 28.893003632315374 -0.03252310912348339 -0.017769410370316187 2.467366327420416 1.0575043171554146 11.162033854167673 -72.40508391678203 21.11255746222878 -10.663802375465233 -21.493961977674036 6.422212906828867 -57.47232396049247 -14.692941098156378 1.4734183824070946 1.108642290972892 -0.4716838729566889 0.03473334763910323 -8.137778305281204 -0.030901749042873496 0.005521738078419506 44.56419491562629 -0.02414699888183622 0.018257868404610227 44.56349836317455 12.440207177694223 0.002632588118072187 -0.047272547608328316 0.04610987885775219 0.022475049162811823 -0.014072792850178558 0.0037787589221930503 -0.03443588836872938 -0.025278493861883154 11.098491196714045 0.0053878941731887705 -0.014738222319175482 0.02281607274105845 -0.04458118004523444 0.010173432606485774 -0.02204738732839498 0.021486964992051966 -0.04706991354114454 4.745863006451728 -0.040542220740902975 0.013773709486658509 0.010034058022038914 -0.024905270981290716 0.0393225510121849 0.0006301883743755185 -0.021467539510258215 -0.01012971374364013 -5.63088988034339 -0.020714303232550167 0.030037125673966353 -6.71071112312137 0.038707624299228756 0.008998847640376482 -6.712432209193763 -0.010168118358223425 0.0003801386565172006 0.02220395006573122 -0.03502309149362775 0.04728369549600969 8.013426767152467 3.491062571123457 -19.250706572519924 -0.034942277017812814 10.360822439129278 0.018029193897040777 -5.620233716582718 -15.701365907471178 3.1965052867224495 0.019262660076583768 -0.04196328923716285 0.003993270166738087 0.03615971421493583 4.662825866198045 0.006976215955236511 12.451696593624224 -8.2339237247916 6.884609084028029 -0.009829365635029261 46.36131648345466 -0.015830006882797638 -4.357617591046425 -14.749534289779348 -3.838552543549241 0.03898371027274881 0.011073791367789057 0.031423937585007146 0.007207056548462676 -10.758783217794862 -0.030629907873486052 
